<svg xmlns="http://www.w3.org/2000/svg" viewBox="0 0 512 512">
  <defs>
    <linearGradient id="bg" x1="0%" y1="0%" x2="100%" y2="100%">
      <stop offset="0%" style="stop-color:#1e3a5f"/>
      <stop offset="100%" style="stop-color:#0c1f3d"/>
    </linearGradient>
  </defs>
  <rect width="512" height="512" rx="96" fill="url(#bg)"/>
  <g transform="translate(106, 80)">
    <!-- Phone outline -->
    <rect x="60" y="0" width="140" height="260" rx="24" fill="none" stroke="#4dd9f5" stroke-width="8"/>
    <rect x="76" y="30" width="108" height="196" rx="6" fill="#0c1f3d"/>
    <circle cx="130" cy="250" r="8" fill="none" stroke="#4dd9f5" stroke-width="3"/>
    <rect x="110" y="8" width="40" height="6" rx="3" fill="#4dd9f5" opacity="0.5"/>
    <!-- Wrench inside phone -->
    <g transform="translate(88, 80) scale(2.5)">
      <path d="M14.7 6.3a1 1 0 0 0 0 1.4l1.6 1.6a1 1 0 0 0 1.4 0l3.77-3.77a6 6 0 0 1-7.94 7.94l-6.91 6.91a2.12 2.12 0 0 1-3-3l6.91-6.91a6 6 0 0 1 7.94-7.94l-3.76 3.76z" fill="none" stroke="#4dd9f5" stroke-width="1.5" stroke-linecap="round" stroke-linejoin="round"/>
    </g>
  </g>
  <!-- Letter I bottom -->
  <text x="256" y="440" font-family="Arial, Helvetica, sans-serif" font-weight="800" font-size="56" fill="#4dd9f5" text-anchor="middle">i</text>
</svg>